<?xml version="1.0" ?>

<!DOCTYPE svg  PUBLIC '-//W3C//DTD SVG 1.1//EN'  'http://www.w3.org/Graphics/SVG/1.1/DTD/svg11.dtd'>

<!-- Uploaded to: SVG Repo, www.svgrepo.com, Generator: SVG Repo Mixer Tools -->
<svg width="800px" height="800px" viewBox="0 0 32 32" enable-background="new 0 0 32 32" id="_x3C_Layer_x3E_" version="1.1" xml:space="preserve" xmlns="http://www.w3.org/2000/svg" xmlns:xlink="http://www.w3.org/1999/xlink">

<g id="Rocket_x2C__launch_x2C__startup">

<g id="XMLID_1408_">

<g id="XMLID_1900_">

<path d="     M17.196,3.175L16,1.5l-1.196,1.675C13.956,4.361,13.5,5.784,13.5,7.243V29.5h5V7.243C18.5,5.784,18.044,4.361,17.196,3.175z" fill="none" id="XMLID_1904_" stroke="#263238" stroke-linecap="round" stroke-linejoin="round" stroke-miterlimit="10"/>

<path d="     M20.5,30.5V23c0-1.259-0.593-2.444-1.6-3.2l-0.4-0.3" fill="none" id="XMLID_1903_" stroke="#263238" stroke-linecap="round" stroke-linejoin="round" stroke-miterlimit="10"/>

<path d="     M13.5,19.5l-0.4,0.3c-1.007,0.756-1.6,1.941-1.6,3.2v7.5" fill="none" id="XMLID_1901_" stroke="#263238" stroke-linecap="round" stroke-linejoin="round" stroke-miterlimit="10"/>

</g>

<g id="XMLID_829_">

<path d="     M10.527,16.524C8.265,16.761,6.5,18.674,6.5,21c0,1.762,1.012,3.287,2.487,4.025" fill="none" id="XMLID_1894_" stroke="#263238" stroke-linecap="round" stroke-linejoin="round" stroke-miterlimit="10"/>

<path d="     M9,25c-1.381,0-2.5,1.119-2.5,2.5c0,0.131,0.01,0.258,0.029,0.383" fill="none" id="XMLID_1892_" stroke="#263238" stroke-linecap="round" stroke-linejoin="round" stroke-miterlimit="10"/>

<path d="     M7.403,28.568C6.78,27.91,5.898,27.5,4.92,27.5c-1.746,0-3.188,1.31-3.396,3" fill="none" id="XMLID_1889_" stroke="#263238" stroke-linecap="round" stroke-linejoin="round" stroke-miterlimit="10"/>

</g>

<g id="XMLID_830_">

<path d="     M25.068,26.065c0.875-0.733,1.432-1.835,1.432-3.066c0-2.209-1.791-4-4-4c-0.169,0-0.336,0.011-0.5,0.031" fill="none" id="XMLID_1896_" stroke="#263238" stroke-linecap="round" stroke-linejoin="round" stroke-miterlimit="10"/>

<path d="     M23.329,18.999c0.11-0.313,0.171-0.649,0.171-1c0-1.657-1.344-3-3-3" fill="none" id="XMLID_1897_" stroke="#263238" stroke-linecap="round" stroke-linejoin="round" stroke-miterlimit="10"/>

<path d="     M26.791,29.5C26.926,29.193,27,28.855,27,28.499c0-1.381-1.119-2.5-2.5-2.5c-0.346,0-0.674,0.07-0.973,0.196" fill="none" id="XMLID_1893_" stroke="#263238" stroke-linecap="round" stroke-linejoin="round" stroke-miterlimit="10"/>

<path d="     M30.5,30.5c0-1.657-1.344-3-3-3c-0.232,0-0.459,0.026-0.677,0.076" fill="none" id="XMLID_1887_" stroke="#263238" stroke-linecap="round" stroke-linejoin="round" stroke-miterlimit="10"/>

</g>

<line fill="none" id="XMLID_1886_" stroke="#263238" stroke-linecap="round" stroke-linejoin="round" stroke-miterlimit="10" x1="15.9" x2="16" y1="13.5" y2="13.5"/>

<line fill="none" id="XMLID_1888_" stroke="#263238" stroke-linecap="round" stroke-linejoin="round" stroke-miterlimit="10" x1="15.9" x2="16" y1="9.5" y2="9.5"/>

<g id="XMLID_1882_">

<line fill="none" id="XMLID_1885_" stroke="#263238" stroke-linecap="round" stroke-linejoin="round" stroke-miterlimit="10" x1="27.5" x2="27.5" y1="17.5" y2="17.6"/>

<line fill="none" id="XMLID_1884_" stroke="#263238" stroke-linecap="round" stroke-linejoin="round" stroke-miterlimit="10" x1="29.5" x2="29.5" y1="14.5" y2="14.6"/>

<line fill="none" id="XMLID_1883_" stroke="#263238" stroke-linecap="round" stroke-linejoin="round" stroke-miterlimit="10" x1="29.5" x2="29.5" y1="20.5" y2="20.6"/>

</g>

<g id="XMLID_1854_">

<line fill="none" id="XMLID_1881_" stroke="#263238" stroke-linecap="round" stroke-linejoin="round" stroke-miterlimit="10" x1="4.5" x2="4.5" y1="17.5" y2="17.6"/>

<line fill="none" id="XMLID_1880_" stroke="#263238" stroke-linecap="round" stroke-linejoin="round" stroke-miterlimit="10" x1="2.5" x2="2.5" y1="14.5" y2="14.6"/>

<line fill="none" id="XMLID_1859_" stroke="#263238" stroke-linecap="round" stroke-linejoin="round" stroke-miterlimit="10" x1="2.5" x2="2.5" y1="20.5" y2="20.6"/>

</g>

<line fill="none" id="XMLID_1853_" stroke="#263238" stroke-linecap="round" stroke-linejoin="round" stroke-miterlimit="10" x1="4.501" x2="8.449" y1="9.773" y2="11.449"/>

<line fill="none" id="XMLID_1848_" stroke="#263238" stroke-linecap="round" stroke-linejoin="round" stroke-miterlimit="10" x1="1.5" x2="2.218" y1="8.5" y2="8.805"/>

<line fill="none" id="XMLID_1840_" stroke="#263238" stroke-linecap="round" stroke-linejoin="round" stroke-miterlimit="10" x1="4" x2="8.029" y1="1.5" y2="4.842"/>

<line fill="none" id="XMLID_1839_" stroke="#263238" stroke-linecap="round" stroke-linejoin="round" stroke-miterlimit="10" x1="30.449" x2="26.382" y1="8.5" y2="10.227"/>

<line fill="none" id="XMLID_1830_" stroke="#263238" stroke-linecap="round" stroke-linejoin="round" stroke-miterlimit="10" x1="25.086" x2="22.07" y1="4.212" y2="7.069"/>

<line fill="none" id="XMLID_1828_" stroke="#263238" stroke-linecap="round" stroke-linejoin="round" stroke-miterlimit="10" x1="27.949" x2="27.013" y1="1.5" y2="2.388"/>

<rect fill="none" height="1" id="XMLID_3311_" stroke="#263238" stroke-linecap="round" stroke-linejoin="round" stroke-miterlimit="10" width="1" x="15.5" y="29.5"/>

<path d="    M11.5,13C10.119,13,9,14.119,9,15.5c0,0.461,0.13,0.888,0.348,1.258" fill="none" id="XMLID_1891_" stroke="#263238" stroke-linecap="round" stroke-linejoin="round" stroke-miterlimit="10"/>

</g>

</g>

</svg>