<?xml version="1.0" ?>
<!-- Uploaded to: SVG Repo, www.svgrepo.com, Generator: SVG Repo Mixer Tools -->
<svg width="512px" height="512px" viewBox="0 0 512 512" id="icon" xmlns="http://www.w3.org/2000/svg">
    <title/>
    <path d="M120.5,481.88a5.59,5.59,0,0,0,5-3.18l55.61-116.08a5.58,5.58,0,1,0-10.07-4.82L115.47,473.87a5.59,5.59,0,0,0,5,8Z"/>
    <path d="M329.26,481.88a5.59,5.59,0,0,0,5-8.16l-106.29-205,.88-.35a25.42,25.42,0,0,0,16-25.44l-.62-9.08,99.37-35.16,2.15,5.38a5.58,5.58,0,0,0,5.18,3.51,5.43,5.43,0,0,0,1.67-.26l65-20.24a5.59,5.59,0,0,0-3.33-10.67l-60,18.71-30.77-76.92,72.52-35.84L402,97.57a5.61,5.61,0,0,0,5.19,3.51,5.69,5.69,0,0,0,2.08-.4,5.6,5.6,0,0,0,3.11-7.26L394.87,49.79l17-6.82,2.53,6.32a5.58,5.58,0,1,0,10.37-4.15l-4.6-11.5A5.6,5.6,0,0,0,413,30.52l-27.42,11a5.6,5.6,0,0,0-3.11,7.27L391.72,72l-77.94,38.53a5.57,5.57,0,0,0-2.71,7.08l28.3,70.75L215,232.34a5.59,5.59,0,0,0,3.73,10.53l14.47-5.12.41,6a14.3,14.3,0,0,1-9,14.3l-31.33,12.53a19,19,0,0,1-6.58,1.34h-.35A19,19,0,0,1,174.75,268a5.58,5.58,0,0,0-6.8,8.86,30,30,0,0,0,10.2,5.06L87,473.89a5.59,5.59,0,1,0,10.1,4.79l93-195.87a29.85,29.85,0,0,0,7.38-1.87l17-6.8V476.29a5.59,5.59,0,0,0,11.18,0V288.6L324.3,478.86A5.57,5.57,0,0,0,329.26,481.88Z"/>
    <path d="M239.4,359.26A5.58,5.58,0,0,0,237,366.8l58.8,112.08a5.59,5.59,0,1,0,9.9-5.19l-58.8-112.08A5.57,5.57,0,0,0,239.4,359.26Z"/>
    <path d="M199,476.29V304.74a5.59,5.59,0,0,0-11.17,0V476.29a5.59,5.59,0,0,0,11.17,0Z"/>
    <path d="M191.75,252.09a5.59,5.59,0,0,0,1.87-.33l1.68-.59a5.59,5.59,0,0,0-3.73-10.53l-1.68.59a5.59,5.59,0,0,0,1.86,10.86Z"/>
    <path d="M413.75,112a5.58,5.58,0,0,0-3.11,7.26l.79,2a5.58,5.58,0,0,0,10.37-4.15l-.79-2A5.58,5.58,0,0,0,413.75,112Z"/>
    <path d="M447.81,207.77a5.59,5.59,0,0,0,2.2.45,5.48,5.48,0,0,0,2.07-.4l27.42-11a5.58,5.58,0,0,0,3.11-7.26L432.17,63.53a5.58,5.58,0,0,0-10.37,4.15l48.36,120.88-17,6.81-23-57.48a5.59,5.59,0,1,0-10.37,4.16l25.07,62.66A5.57,5.57,0,0,0,447.81,207.77Z"/>
    <path d="M57.89,290a5.56,5.56,0,0,0,2.07-.4l50.35-20.14,2.12,5.31a5.6,5.6,0,0,0,5.19,3.51,5.73,5.73,0,0,0,1.86-.32L172,259.43a5.58,5.58,0,1,0-3.72-10.53l-47.42,16.77-2.2-5.5h0l-12.81-32,194.65-87.19a5.59,5.59,0,0,0-4.56-10.2L189,178.61l-6.91-17.46a5.59,5.59,0,1,0-10.39,4.11l7.09,17.92-16.87,7.56-11.63-29.06,49.43-23.15a5.6,5.6,0,0,0,2.82-7.14l-6.12-15.28A5.58,5.58,0,1,0,186,120.26l4.15,10.39-70.36,33-10.06-25.14,67-41.47,1.62,4a5.58,5.58,0,1,0,10.37-4.15l-4.09-10.23A5.58,5.58,0,0,0,176.51,84L99.9,131.44a5.6,5.6,0,0,0-2.25,6.83l14,35a5.6,5.6,0,0,0,5.19,3.51,5.46,5.46,0,0,0,2.37-.53l20.93-9.8,11.56,28.88-55.38,24.8a5.6,5.6,0,0,0-2.9,7.18l12.74,31.83L59.08,278,44.88,264.9,83.3,249.53a5.59,5.59,0,0,0,3.11-7.27L67.52,195a5.59,5.59,0,0,0-7.26-3.11L35.19,202a5.6,5.6,0,0,0-3.12,7.26l9.16,22.89A5.59,5.59,0,1,0,51.6,228l-7.08-17.69,14.7-5.88L74,241.23,32.5,257.82a5.58,5.58,0,0,0-1.71,9.29L54.1,288.57A5.62,5.62,0,0,0,57.89,290Z"/>
</svg>