<?xml version="1.0" encoding="utf-8"?>
<!-- Uploaded to: SVG Repo, www.svgrepo.com, Generator: SVG Repo Mixer Tools -->
<svg width="72px" height="72px" viewBox="0 0 1024 1024" class="icon" version="1.1"
     xmlns="http://www.w3.org/2000/svg">
    <path d="M526.294 824.994c-0.796 0-1.61-0.124-2.39-0.344a8.02 8.02 0 0 1-5.484-6.216c-5.374-29.624-20.59-79.834-38.526-88.428a8.03 8.03 0 0 1-3.75-10.686 8.02 8.02 0 0 1 10.688-3.75c23.996 11.532 38.212 59.68 44.18 85.02 93.754-100.924 51.37-164.976 50.916-165.632a7.982 7.982 0 0 1 2.032-11.124c3.578-2.5 8.624-1.624 11.124 2.032 2.234 3.218 53.384 80.366-63.132 196.788a7.99 7.99 0 0 1-5.658 2.34zM348.038 594.618a8.03 8.03 0 0 1-6.876-3.906c-11.67-19.652-67.35-33.588-87.816-37.306a8.016 8.016 0 0 1-6.218-5.5 7.994 7.994 0 0 1 1.984-8.03c116.486-116.508 193.646-65.422 196.85-63.172a7.99 7.99 0 0 1 2.032 11.124c-2.5 3.64-7.466 4.516-11.092 2.062-2.75-1.89-65.586-42.228-165.728 50.924 24.496 5.75 70.38 19.214 83.738 41.712a7.988 7.988 0 0 1-2.782 10.966 8.12 8.12 0 0 1-4.092 1.126zM189.338 893.64c-4.03 0-6.56-1.688-7.982-3.094-18.076-18.09 78.178-123.42 79.194-124.452 12.092-12.06 33.166-12.06 45.26 0.032a31.702 31.702 0 0 1 9.358 22.59c0 8.562-3.328 16.592-9.374 22.624-0.83 0.844-92.926 82.3-116.456 82.3z m93.832-120.89a15.924 15.924 0 0 0-11.31 4.656c-11.56 11.56-60.96 72.428-74.302 96.926 24.496-13.344 85.364-62.742 96.924-74.304a15.796 15.796 0 0 0 4.688-11.31 15.78 15.78 0 0 0-4.672-11.28 15.892 15.892 0 0 0-11.328-4.688z"
          fill=""/>
    <path d="M158.014 943.478c-9.42 0-16.792-2.594-21.902-7.686-15.358-15.374-7.89-49.932 22.824-105.644 22.966-41.68 53.026-83.3 67.696-97.956 15.092-15.124 35.166-23.434 56.524-23.434s41.448 8.31 56.554 23.434c31.168 31.184 31.2 81.928 0.046 113.112-24.512 24.496-132.014 98.174-181.742 98.174z m125.14-218.72c-17.092 0-33.136 6.654-45.212 18.746-13.966 13.938-43.416 55.182-64.992 94.364-29.418 53.336-32.134 79.99-25.528 86.614 2 2 5.562 3 10.592 3 41.918 0 144.78-67.866 170.432-93.488 24.918-24.934 24.886-65.552-0.046-90.488-12.094-12.094-28.154-18.748-45.246-18.748zM446.476 767.72a7.996 7.996 0 0 1-5.654-13.654l441.16-441.17c38.776-38.776 50.682-81.272 54.322-103.142 5.638-33.84-0.75-58.226-9.078-66.554-7.874-7.874-34.636-12.092-70.552-4.906-38.932 7.78-75.068 26.06-99.142 50.134L316.37 629.614l-11.31-11.31L746.22 177.118c26.246-26.262 65.368-46.12 107.33-54.508 30.496-6.092 68.88-6.858 84.99 9.28 25.246 25.246 27.278 119.796-45.246 192.318l-441.16 441.17a7.98 7.98 0 0 1-5.658 2.342z"
          fill=""/>
    <path d="M797.12 190.772a7.992 7.992 0 0 1-6.86-3.876 8.024 8.024 0 0 1 2.734-10.982c56.398-33.95 106.83-37.542 122.922-21.404a8 8 0 0 1-11.31 11.312c-7.078-7.062-46.792-10.25-103.364 23.808a8.08 8.08 0 0 1-4.122 1.142zM378.58 699.822a8 8 0 0 1-5.656-13.654l135.686-135.67a7.996 7.996 0 1 1 11.31 11.31l-135.686 135.672a7.97 7.97 0 0 1-5.654 2.342zM355.958 677.202a7.972 7.972 0 0 1-5.654-2.344l-45.244-45.244a7.996 7.996 0 1 1 11.31-11.31l45.244 45.244a7.996 7.996 0 0 1-5.656 13.654zM446.476 767.72a7.968 7.968 0 0 1-5.654-2.344l-45.276-45.276a7.996 7.996 0 1 1 11.31-11.31l45.276 45.276a7.996 7.996 0 0 1-5.656 13.654zM717.942 408.478c-14.966 0-29.012-5.828-39.588-16.404-10.576-10.578-16.404-24.638-16.404-39.59 0-14.966 5.828-29.028 16.404-39.604 21.152-21.168 58.04-21.168 79.194-0.016 10.576 10.576 16.402 24.636 16.402 39.588 0 14.966-5.826 29.028-16.402 39.606-10.58 10.576-24.656 16.42-39.606 16.42z m0.016-96.02c-10.686 0-20.73 4.172-28.292 11.732a39.74 39.74 0 0 0-11.716 28.292 39.728 39.728 0 0 0 11.716 28.278c15.092 15.092 41.448 15.108 56.57-0.016a39.74 39.74 0 0 0 11.718-28.294 39.738 39.738 0 0 0-11.718-28.278 39.73 39.73 0 0 0-28.278-11.714zM604.832 521.588c-14.968 0-29.028-5.826-39.59-16.404-10.576-10.576-16.404-24.636-16.404-39.588 0-14.966 5.828-29.028 16.404-39.588 21.124-21.122 58.024-21.154 79.178 0 10.576 10.578 16.404 24.638 16.404 39.588s-5.828 29.012-16.404 39.588c-10.576 10.578-24.638 16.404-39.588 16.404z m0-95.988c-10.688 0-20.732 4.156-28.278 11.718-7.562 7.544-11.718 17.59-11.718 28.278a39.734 39.734 0 0 0 11.718 28.278c15.074 15.108 41.416 15.138 56.554 0a39.74 39.74 0 0 0 11.716-28.278 39.74 39.74 0 0 0-11.716-28.278 39.728 39.728 0 0 0-28.276-11.718zM904.262 799.966c-4.422 0-8.078-3.562-8.078-8 0-4.404 3.5-7.998 7.906-7.998h0.172a8.014 8.014 0 0 1 7.998 7.998c0 4.438-3.592 8-7.998 8zM280.31 16.06c-4.42 0-8.076-3.578-8.076-8 0-4.42 3.5-7.998 7.904-7.998h0.172c4.406 0 8 3.578 8 7.998 0 4.422-3.594 8-8 8zM632.266 48.056c-4.422 0-8.078-3.578-8.078-8 0-4.42 3.5-7.998 7.906-7.998h0.172a8.004 8.004 0 0 1 7.998 7.998c0 4.422-3.592 8-7.998 8zM40.342 240.032c-4.422 0-8.076-3.578-8.076-8 0-4.42 3.5-7.998 7.904-7.998h0.172c4.406 0 8 3.578 8 7.998 0 4.422-3.594 8-8 8zM168.31 671.982c-4.422 0-8.078-3.594-8.078-7.998 0-4.438 3.5-8 7.906-8h0.172a7.994 7.994 0 0 1 7.998 8 8.014 8.014 0 0 1-7.998 7.998zM567.46 1007.94c-4.422 0-8.078-3.594-8.078-8 0-4.436 3.5-7.998 7.906-7.998h0.172c4.406 0 8 3.562 8 7.998 0 4.406-3.592 8-8 8zM952.222 1023.938c-4.42 0-8.076-3.562-8.076-8 0-4.406 3.5-7.998 7.904-7.998h0.172c4.406 0 8 3.592 8 7.998 0 4.438-3.594 8-8 8zM776.278 591.992c-4.422 0-8.076-3.592-8.076-7.998 0-4.438 3.498-7.998 7.904-7.998h0.172c4.406 0 8 3.56 8 7.998a8.014 8.014 0 0 1-8 7.998zM968.238 527.994c-4.422 0-8.078-3.578-8.078-8 0-4.42 3.5-7.998 7.906-7.998h0.172a8.004 8.004 0 0 1 7.998 7.998c0 4.422-3.594 8-7.998 8zM872.25 751.942c-4.422 0-8.078-3.562-8.078-8 0-4.404 3.5-7.998 7.906-7.998h0.172a8.014 8.014 0 0 1 7.998 7.998c0 4.436-3.592 8-7.998 8z"
          fill=""/>
    <path d="M911.76 831.992c-44.104-0.032-79.99-35.932-80.006-80.02 0.016-44.12 35.902-79.99 79.99-79.99 44.104 0 79.99 35.872 79.99 79.99 0 44.088-35.87 79.988-79.974 80.02z m-0.016-144.012c-35.276 0-63.974 28.714-63.99 63.992 0.016 35.278 28.73 63.992 64.006 64.024 35.278-0.032 63.976-28.746 63.976-64.024 0-35.308-28.698-63.992-63.992-63.992z"
          fill=""/>
    <path d="M935.79 751.972c-13.234 0-24.014-10.782-24.03-23.996 0-13.25 10.764-23.998 23.982-23.998 13.232 0 23.996 10.78 23.996 23.998a23.774 23.774 0 0 1-6.968 16.934 23.76 23.76 0 0 1-16.98 7.062z m-0.064-31.996a7.972 7.972 0 0 0-7.968 7.968c0.016 4.498 3.516 8.03 8 8.03h0.032c2.14 0 4.138-0.844 5.638-2.344s2.312-3.5 2.312-5.624a8.026 8.026 0 0 0-8.014-8.03zM711.8 927.98a8.004 8.004 0 0 1-7.998-7.998l-0.032-64.024a8.004 8.004 0 0 1 7.998-7.998c4.422 0 8 3.592 8 7.998l0.032 64.024a8.006 8.006 0 0 1-8 7.998z"
          fill=""/>
    <path d="M727.77 895.954h-31.996c-4.422 0-8-3.594-8-7.998 0-4.438 3.578-8 8-8h31.996a7.984 7.984 0 0 1 7.998 8 8.004 8.004 0 0 1-7.998 7.998zM391.812 991.942c-4.422 0-8-3.594-8-8v-63.99c0-4.438 3.578-8 8-8s7.998 3.562 7.998 8v63.99c0 4.406-3.576 8-7.998 8z"
          fill=""/>
    <path d="M407.794 959.946h-31.98c-4.422 0-8-3.594-8-8a7.984 7.984 0 0 1 8-7.998h31.98a7.982 7.982 0 0 1 7.998 7.998c0 4.406-3.576 8-7.998 8zM197.4 198.192c-4.422 0-8-3.578-8-8l0.016-63.992a7.994 7.994 0 0 1 8-7.998 7.994 7.994 0 0 1 7.998 7.998l-0.016 63.992c0 4.424-3.578 8-7.998 8z"
          fill=""/>
    <path d="M213.398 166.198H181.402c-4.422 0-8-3.578-8-8a7.994 7.994 0 0 1 8-7.998h31.996a7.994 7.994 0 0 1 7.998 7.998c0 4.422-3.578 8-7.998 8zM519.794 144.042a7.994 7.994 0 0 1-7.998-7.998l0.016-63.992c0-4.422 3.578-8 7.998-8 4.422 0 8 3.578 8 8l-0.016 63.992a7.994 7.994 0 0 1-8 7.998z"
          fill=""/>
    <path d="M535.792 112.046h-31.98a7.994 7.994 0 0 1-7.998-7.998c0-4.422 3.578-8 7.998-8h31.98c4.422 0 8 3.578 8 8a7.994 7.994 0 0 1-8 7.998zM87.836 511.996a7.994 7.994 0 0 1-7.998-8l0.032-63.992c0-4.42 3.576-8 7.998-8 4.422 0 8 3.578 8 8l-0.032 63.992c0 4.422-3.578 8-8 8z"
          fill=""/>
    <path d="M103.866 480H71.87c-4.422 0-7.998-3.578-7.998-8s3.576-8 7.998-8h31.996c4.422 0 7.998 3.578 7.998 8s-3.576 8-7.998 8zM359.816 336.018c-14.936 0-28.996-5.828-39.588-16.404-10.578-10.578-16.404-24.638-16.42-39.588 0-14.952 5.826-29.012 16.404-39.572 21.184-21.17 58.024-21.186 79.176-0.016 10.594 10.576 16.42 24.636 16.42 39.588s-5.826 29.012-16.42 39.588c-10.56 10.578-24.62 16.404-39.572 16.404z m0-95.986c-10.686 0-20.732 4.17-28.292 11.732a39.668 39.668 0 0 0-11.716 28.262 39.814 39.814 0 0 0 11.732 28.278c15.124 15.124 41.448 15.124 56.54 0 7.562-7.56 11.732-17.606 11.732-28.278 0-10.67-4.17-20.716-11.732-28.278-7.562-7.562-17.594-11.716-28.264-11.716z"
          fill=""/>
    <path d="M318.478 334.612c-3.704 0-6.984-1.11-9.562-3.686a8 8 0 0 1 10.188-12.25c5.124-0.296 23.308-9.952 46.354-32.98 23.058-23.06 32.712-41.26 33.01-46.4-2.138-3.11-1.842-7.422 0.938-10.186a8 8 0 0 1 11.312 0c16.154 16.154-25.452 59.398-33.95 67.898-7.142 7.14-38.778 37.604-58.29 37.604z"
          fill=""/>
    <path d="M876.328 315.224a7.976 7.976 0 0 1-5.656-2.344l-113.124-113.126a8 8 0 0 1 11.31-11.312l113.124 113.126a7.996 7.996 0 0 1 0 11.31 7.954 7.954 0 0 1-5.654 2.346z"
          fill=""/>
    <path d="M408.03 757.91c-10.204 0-27.778-7.844-57.726-37.808-44.292-44.276-40.278-61.524-33.934-67.868a7.996 7.996 0 0 1 12.404 9.938c-0.124 1.906 0.5 14.28 32.84 46.62 32.292 32.306 44.478 32.744 46.634 32.87a8.006 8.006 0 0 1 9.936 1.094 8 8 0 0 1 0 11.312c-2.048 2.03-5.25 3.842-10.154 3.842z"
          fill=""/>
    <path d="M616.142 462.284a7.976 7.976 0 0 1-5.656-2.344c-3.092-3.092-8.374-3.092-11.466 0a7.996 7.996 0 0 1-11.31 0c-3.124-3.108-3.124-8.17 0-11.31 9.092-9.124 24.996-9.124 34.088 0 3.124 3.14 3.124 8.202 0 11.31a7.976 7.976 0 0 1-5.656 2.344z"
          fill=""/>
    <path d="M729.268 349.158a7.98 7.98 0 0 1-5.654-2.342 8.128 8.128 0 0 0-11.468 0 8 8 0 0 1-11.31-11.312c9.404-9.406 24.686-9.406 34.09 0a8 8 0 0 1-5.658 13.654z"
          fill=""/>
</svg>